<svg width="98" height="98" viewBox="0 0 98 98" fill="none" xmlns="http://www.w3.org/2000/svg">
<path d="M74.188 79.8872L53.6567 59.3558L74.188 38.8245C78.3301 34.6824 78.3301 27.9595 74.188 23.8174C70.046 19.6754 63.3231 19.6754 59.181 23.8174L38.6497 44.3488L18.1183 23.8174C13.9763 19.6754 7.25332 19.6754 3.11129 23.8174C-1.03075 27.9595 -1.03075 34.6824 3.11129 38.8245L23.6427 59.3558L3.11129 79.8872C-1.03075 84.0292 -1.03075 90.7521 3.11129 94.8942C7.25332 99.0362 13.9763 99.0362 18.1183 94.8942L38.6497 74.3628L59.181 94.8942C63.3231 99.0362 70.046 99.0362 74.188 94.8942C78.3301 90.7473 78.3301 84.0292 74.188 79.8872Z" fill="#FF505D"/>
<path d="M18.1136 23.8174C13.9715 19.6754 7.24856 19.6754 3.10653 23.8174C-1.03551 27.9595 -1.03551 34.6824 3.10653 38.8245L23.6379 59.3558L38.6449 44.3488L18.1136 23.8174Z" fill="#07DA70"/>
<path d="M94.8935 3.10653C90.7515 -1.03551 84.0285 -1.03551 79.8865 3.10653L38.6498 44.3432L53.6568 59.3502L94.8935 18.1135C99.0355 13.9715 99.0355 7.2534 94.8935 3.10653Z" fill="#07DA70"/>
<path d="M23.6377 59.3502L33.9517 69.6642C36.5423 72.2548 40.7423 72.2548 43.3329 69.6642L53.6469 59.3502L38.6399 44.3432L23.6377 59.3502Z" fill="#16C167"/>
</svg>
