<svg width="188" height="66" viewBox="0 0 188 66" fill="none" xmlns="http://www.w3.org/2000/svg">
<g filter="url(#filter0_b_46_243)">
<rect width="187.622" height="66" rx="16" fill="white" fill-opacity="0.2"/>
<g clip-path="url(#clip0_46_243)">
<path d="M36.5879 20.7211C35.2787 20.8116 33.7484 21.6497 32.8567 22.7409C32.0432 23.7309 31.374 25.2013 31.6349 26.6303C33.0654 26.6748 34.5435 25.8168 35.3999 24.7071C36.2011 23.6741 36.8074 22.213 36.5879 20.7211Z" fill="white" fill-opacity="0.95"/>
<path d="M41.7619 28.9602C40.5048 27.3839 38.7382 26.4691 37.0698 26.4691C34.8672 26.4691 33.9356 27.5236 32.4053 27.5236C30.8275 27.5236 29.6288 26.4722 27.724 26.4722C25.853 26.4722 23.8607 27.6157 22.5976 29.5711C20.8217 32.3246 21.1256 37.5017 24.0035 41.9114C25.0334 43.4892 26.4086 45.2635 28.2075 45.2789C29.8083 45.2942 30.2596 44.252 32.4284 44.2413C34.5971 44.229 35.0085 45.2927 36.6062 45.2758C38.4066 45.262 39.8571 43.2958 40.887 41.718C41.6253 40.5868 41.9 40.0174 42.4725 38.7403C38.3084 37.1548 37.6407 31.2333 41.7619 28.9602Z" fill="white" fill-opacity="0.95"/>
</g>
<path d="M58.3115 17.05C59.0515 17.05 59.6982 17.1933 60.2515 17.48C60.8115 17.76 61.2415 18.1667 61.5415 18.7C61.8482 19.2267 62.0015 19.8433 62.0015 20.55C62.0015 21.2567 61.8482 21.87 61.5415 22.39C61.2415 22.91 60.8115 23.31 60.2515 23.59C59.6982 23.8633 59.0515 24 58.3115 24H56.0415V17.05H58.3115ZM58.3115 23.07C59.1248 23.07 59.7482 22.85 60.1815 22.41C60.6148 21.97 60.8315 21.35 60.8315 20.55C60.8315 19.7433 60.6148 19.1133 60.1815 18.66C59.7482 18.2067 59.1248 17.98 58.3115 17.98H57.1815V23.07H58.3115ZM67.8013 24.07C67.1547 24.07 66.558 23.92 66.0113 23.62C65.4713 23.3133 65.0413 22.89 64.7213 22.35C64.408 21.8033 64.2513 21.19 64.2513 20.51C64.2513 19.83 64.408 19.22 64.7213 18.68C65.0413 18.14 65.4713 17.72 66.0113 17.42C66.558 17.1133 67.1547 16.96 67.8013 16.96C68.4547 16.96 69.0513 17.1133 69.5913 17.42C70.138 17.72 70.568 18.14 70.8813 18.68C71.1947 19.22 71.3513 19.83 71.3513 20.51C71.3513 21.19 71.1947 21.8033 70.8813 22.35C70.568 22.89 70.138 23.3133 69.5913 23.62C69.0513 23.92 68.4547 24.07 67.8013 24.07ZM67.8013 23.08C68.2613 23.08 68.6713 22.9767 69.0313 22.77C69.3913 22.5567 69.6713 22.2567 69.8713 21.87C70.078 21.4767 70.1813 21.0233 70.1813 20.51C70.1813 19.9967 70.078 19.5467 69.8713 19.16C69.6713 18.7733 69.3913 18.4767 69.0313 18.27C68.6713 18.0633 68.2613 17.96 67.8013 17.96C67.3413 17.96 66.9313 18.0633 66.5713 18.27C66.2113 18.4767 65.928 18.7733 65.7213 19.16C65.5213 19.5467 65.4213 19.9967 65.4213 20.51C65.4213 21.0233 65.5213 21.4767 65.7213 21.87C65.928 22.2567 66.2113 22.5567 66.5713 22.77C66.9313 22.9767 67.3413 23.08 67.8013 23.08ZM83.0231 17.05L80.9631 24H79.6731L78.2131 18.74L76.6631 24L75.3831 24.01L73.4131 17.05H74.6231L76.0631 22.71L77.6231 17.05H78.9031L80.3531 22.68L81.8031 17.05H83.0231ZM91.1734 24H90.0334L86.6034 18.81V24H85.4634V17.04H86.6034L90.0334 22.22V17.04H91.1734V24ZM95.3104 23.08H97.6604V24H94.1704V17.05H95.3104V23.08ZM103.284 24.07C102.637 24.07 102.04 23.92 101.494 23.62C100.954 23.3133 100.524 22.89 100.204 22.35C99.8904 21.8033 99.7338 21.19 99.7338 20.51C99.7338 19.83 99.8904 19.22 100.204 18.68C100.524 18.14 100.954 17.72 101.494 17.42C102.04 17.1133 102.637 16.96 103.284 16.96C103.937 16.96 104.534 17.1133 105.074 17.42C105.62 17.72 106.05 18.14 106.364 18.68C106.677 19.22 106.834 19.83 106.834 20.51C106.834 21.19 106.677 21.8033 106.364 22.35C106.05 22.89 105.62 23.3133 105.074 23.62C104.534 23.92 103.937 24.07 103.284 24.07ZM103.284 23.08C103.744 23.08 104.154 22.9767 104.514 22.77C104.874 22.5567 105.154 22.2567 105.354 21.87C105.56 21.4767 105.664 21.0233 105.664 20.51C105.664 19.9967 105.56 19.5467 105.354 19.16C105.154 18.7733 104.874 18.4767 104.514 18.27C104.154 18.0633 103.744 17.96 103.284 17.96C102.824 17.96 102.414 18.0633 102.054 18.27C101.694 18.4767 101.41 18.7733 101.204 19.16C101.004 19.5467 100.904 19.9967 100.904 20.51C100.904 21.0233 101.004 21.4767 101.204 21.87C101.41 22.2567 101.694 22.5567 102.054 22.77C102.414 22.9767 102.824 23.08 103.284 23.08ZM113.646 22.58H110.736L110.236 24H109.046L111.536 17.04H112.856L115.346 24H114.146L113.646 22.58ZM113.326 21.65L112.196 18.42L111.056 21.65H113.326ZM120.198 17.05C120.938 17.05 121.585 17.1933 122.138 17.48C122.698 17.76 123.128 18.1667 123.428 18.7C123.735 19.2267 123.888 19.8433 123.888 20.55C123.888 21.2567 123.735 21.87 123.428 22.39C123.128 22.91 122.698 23.31 122.138 23.59C121.585 23.8633 120.938 24 120.198 24H117.928V17.05H120.198ZM120.198 23.07C121.012 23.07 121.635 22.85 122.068 22.41C122.502 21.97 122.718 21.35 122.718 20.55C122.718 19.7433 122.502 19.1133 122.068 18.66C121.635 18.2067 121.012 17.98 120.198 17.98H119.068V23.07H120.198ZM133.786 24.07C133.139 24.07 132.542 23.92 131.996 23.62C131.456 23.3133 131.026 22.89 130.706 22.35C130.392 21.8033 130.236 21.19 130.236 20.51C130.236 19.83 130.392 19.22 130.706 18.68C131.026 18.14 131.456 17.72 131.996 17.42C132.542 17.1133 133.139 16.96 133.786 16.96C134.439 16.96 135.036 17.1133 135.576 17.42C136.122 17.72 136.552 18.14 136.866 18.68C137.179 19.22 137.336 19.83 137.336 20.51C137.336 21.19 137.179 21.8033 136.866 22.35C136.552 22.89 136.122 23.3133 135.576 23.62C135.036 23.92 134.439 24.07 133.786 24.07ZM133.786 23.08C134.246 23.08 134.656 22.9767 135.016 22.77C135.376 22.5567 135.656 22.2567 135.856 21.87C136.062 21.4767 136.166 21.0233 136.166 20.51C136.166 19.9967 136.062 19.5467 135.856 19.16C135.656 18.7733 135.376 18.4767 135.016 18.27C134.656 18.0633 134.246 17.96 133.786 17.96C133.326 17.96 132.916 18.0633 132.556 18.27C132.196 18.4767 131.912 18.7733 131.706 19.16C131.506 19.5467 131.406 19.9967 131.406 20.51C131.406 21.0233 131.506 21.4767 131.706 21.87C131.912 22.2567 132.196 22.5567 132.556 22.77C132.916 22.9767 133.326 23.08 133.786 23.08ZM145.668 24H144.528L141.098 18.81V24H139.958V17.04H141.098L144.528 22.22V17.04H145.668V24ZM157.252 17.05V17.98H155.402V24H154.262V17.98H152.402V17.05H157.252ZM165.457 17.05V24H164.317V20.96H161.047V24H159.907V17.05H161.047V20.03H164.317V17.05H165.457ZM169.598 17.97V20.01H171.998V20.94H169.598V23.07H172.298V24H168.458V17.04H172.298V17.97H169.598Z" fill="white" fill-opacity="0.9"/>
<path d="M63.2435 43.872H58.7955L58.0595 46H55.7075L59.7235 34.816H62.3315L66.3475 46H63.9795L63.2435 43.872ZM62.6355 42.08L61.0195 37.408L59.4035 42.08H62.6355ZM70.0886 38.416C70.3766 38.0107 70.7713 37.6747 71.2726 37.408C71.7846 37.1307 72.366 36.992 73.0166 36.992C73.774 36.992 74.4566 37.1787 75.0646 37.552C75.6833 37.9253 76.1686 38.4587 76.5206 39.152C76.8833 39.8347 77.0646 40.6293 77.0646 41.536C77.0646 42.4427 76.8833 43.248 76.5206 43.952C76.1686 44.6453 75.6833 45.184 75.0646 45.568C74.4566 45.952 73.774 46.144 73.0166 46.144C72.366 46.144 71.79 46.0107 71.2886 45.744C70.798 45.4773 70.398 45.1413 70.0886 44.736V50.224H67.8486V37.136H70.0886V38.416ZM74.7766 41.536C74.7766 41.0027 74.6646 40.544 74.4406 40.16C74.2273 39.7653 73.9393 39.4667 73.5766 39.264C73.2246 39.0613 72.8406 38.96 72.4246 38.96C72.0193 38.96 71.6353 39.0667 71.2726 39.28C70.9206 39.4827 70.6326 39.7813 70.4086 40.176C70.1953 40.5707 70.0886 41.0347 70.0886 41.568C70.0886 42.1013 70.1953 42.5653 70.4086 42.96C70.6326 43.3547 70.9206 43.6587 71.2726 43.872C71.6353 44.0747 72.0193 44.176 72.4246 44.176C72.8406 44.176 73.2246 44.0693 73.5766 43.856C73.9393 43.6427 74.2273 43.3387 74.4406 42.944C74.6646 42.5493 74.7766 42.08 74.7766 41.536ZM80.9324 38.416C81.2204 38.0107 81.615 37.6747 82.1164 37.408C82.6284 37.1307 83.2097 36.992 83.8604 36.992C84.6177 36.992 85.3004 37.1787 85.9084 37.552C86.527 37.9253 87.0124 38.4587 87.3644 39.152C87.727 39.8347 87.9084 40.6293 87.9084 41.536C87.9084 42.4427 87.727 43.248 87.3644 43.952C87.0124 44.6453 86.527 45.184 85.9084 45.568C85.3004 45.952 84.6177 46.144 83.8604 46.144C83.2097 46.144 82.6337 46.0107 82.1324 45.744C81.6417 45.4773 81.2417 45.1413 80.9324 44.736V50.224H78.6924V37.136H80.9324V38.416ZM85.6204 41.536C85.6204 41.0027 85.5084 40.544 85.2844 40.16C85.071 39.7653 84.783 39.4667 84.4204 39.264C84.0684 39.0613 83.6844 38.96 83.2684 38.96C82.863 38.96 82.479 39.0667 82.1164 39.28C81.7644 39.4827 81.4764 39.7813 81.2524 40.176C81.039 40.5707 80.9324 41.0347 80.9324 41.568C80.9324 42.1013 81.039 42.5653 81.2524 42.96C81.4764 43.3547 81.7644 43.6587 82.1164 43.872C82.479 44.0747 82.863 44.176 83.2684 44.176C83.6844 44.176 84.0684 44.0693 84.4204 43.856C84.783 43.6427 85.071 43.3387 85.2844 42.944C85.5084 42.5493 85.6204 42.08 85.6204 41.536ZM97.2046 46.112C96.426 46.112 95.722 45.9787 95.0926 45.712C94.474 45.4453 93.9833 45.0613 93.6206 44.56C93.258 44.0587 93.0713 43.4667 93.0606 42.784H95.4606C95.4926 43.2427 95.6526 43.6053 95.9406 43.872C96.2393 44.1387 96.6446 44.272 97.1566 44.272C97.6793 44.272 98.09 44.1493 98.3886 43.904C98.6873 43.648 98.8366 43.3173 98.8366 42.912C98.8366 42.5813 98.7353 42.3093 98.5326 42.096C98.33 41.8827 98.074 41.7173 97.7646 41.6C97.466 41.472 97.05 41.3333 96.5166 41.184C95.7913 40.9707 95.1993 40.7627 94.7406 40.56C94.2926 40.3467 93.9033 40.032 93.5726 39.616C93.2526 39.1893 93.0926 38.624 93.0926 37.92C93.0926 37.2587 93.258 36.6827 93.5886 36.192C93.9193 35.7013 94.3833 35.328 94.9806 35.072C95.578 34.8053 96.2606 34.672 97.0286 34.672C98.1806 34.672 99.114 34.9547 99.8286 35.52C100.554 36.0747 100.954 36.8533 101.029 37.856H98.5646C98.5433 37.472 98.378 37.1573 98.0686 36.912C97.77 36.656 97.37 36.528 96.8686 36.528C96.4313 36.528 96.0793 36.64 95.8126 36.864C95.5566 37.088 95.4286 37.4133 95.4286 37.84C95.4286 38.1387 95.5246 38.3893 95.7166 38.592C95.9193 38.784 96.1646 38.944 96.4526 39.072C96.7513 39.1893 97.1673 39.328 97.7006 39.488C98.426 39.7013 99.018 39.9147 99.4766 40.128C99.9353 40.3413 100.33 40.6613 100.661 41.088C100.991 41.5147 101.157 42.0747 101.157 42.768C101.157 43.3653 101.002 43.92 100.693 44.432C100.383 44.944 99.93 45.3547 99.3326 45.664C98.7353 45.9627 98.026 46.112 97.2046 46.112ZM105.707 38.976V43.264C105.707 43.5627 105.776 43.7813 105.915 43.92C106.064 44.048 106.309 44.112 106.651 44.112H107.691V46H106.283C104.395 46 103.451 45.0827 103.451 43.248V38.976H102.395V37.136H103.451V34.944H105.707V37.136H107.691V38.976H105.707ZM113.238 46.144C112.384 46.144 111.616 45.9573 110.934 45.584C110.251 45.2 109.712 44.6613 109.318 43.968C108.934 43.2747 108.742 42.4747 108.742 41.568C108.742 40.6613 108.939 39.8613 109.334 39.168C109.739 38.4747 110.288 37.9413 110.982 37.568C111.675 37.184 112.448 36.992 113.302 36.992C114.155 36.992 114.928 37.184 115.622 37.568C116.315 37.9413 116.859 38.4747 117.254 39.168C117.659 39.8613 117.862 40.6613 117.862 41.568C117.862 42.4747 117.654 43.2747 117.238 43.968C116.832 44.6613 116.278 45.2 115.574 45.584C114.88 45.9573 114.102 46.144 113.238 46.144ZM113.238 44.192C113.643 44.192 114.022 44.096 114.374 43.904C114.736 43.7013 115.024 43.4027 115.238 43.008C115.451 42.6133 115.558 42.1333 115.558 41.568C115.558 40.7253 115.334 40.08 114.886 39.632C114.448 39.1733 113.91 38.944 113.27 38.944C112.63 38.944 112.091 39.1733 111.654 39.632C111.227 40.08 111.014 40.7253 111.014 41.568C111.014 42.4107 111.222 43.0613 111.638 43.52C112.064 43.968 112.598 44.192 113.238 44.192ZM121.745 38.512C122.033 38.0427 122.406 37.6747 122.865 37.408C123.334 37.1413 123.868 37.008 124.465 37.008V39.36H123.873C123.169 39.36 122.636 39.5253 122.273 39.856C121.921 40.1867 121.745 40.7627 121.745 41.584V46H119.505V37.136H121.745V38.512ZM134.214 41.376C134.214 41.696 134.192 41.984 134.15 42.24H127.67C127.723 42.88 127.947 43.3813 128.342 43.744C128.736 44.1067 129.222 44.288 129.798 44.288C130.63 44.288 131.222 43.9307 131.574 43.216H133.99C133.734 44.0693 133.243 44.7733 132.518 45.328C131.792 45.872 130.902 46.144 129.846 46.144C128.992 46.144 128.224 45.9573 127.542 45.584C126.87 45.2 126.342 44.6613 125.958 43.968C125.584 43.2747 125.398 42.4747 125.398 41.568C125.398 40.6507 125.584 39.8453 125.958 39.152C126.331 38.4587 126.854 37.9253 127.526 37.552C128.198 37.1787 128.971 36.992 129.846 36.992C130.688 36.992 131.44 37.1733 132.102 37.536C132.774 37.8987 133.291 38.416 133.654 39.088C134.027 39.7493 134.214 40.512 134.214 41.376ZM131.894 40.736C131.883 40.16 131.675 39.7013 131.27 39.36C130.864 39.008 130.368 38.832 129.782 38.832C129.227 38.832 128.758 39.0027 128.374 39.344C128 39.6747 127.771 40.1387 127.686 40.736H131.894Z" fill="white" fill-opacity="0.9"/>
</g>
<defs>
<filter id="filter0_b_46_243" x="-20" y="-20" width="227.622" height="106" filterUnits="userSpaceOnUse" color-interpolation-filters="sRGB">
<feFlood flood-opacity="0" result="BackgroundImageFix"/>
<feGaussianBlur in="BackgroundImageFix" stdDeviation="10"/>
<feComposite in2="SourceAlpha" operator="in" result="effect1_backgroundBlur_46_243"/>
<feBlend mode="normal" in="SourceGraphic" in2="effect1_backgroundBlur_46_243" result="shape"/>
</filter>
<clipPath id="clip0_46_243">
<rect width="27.9685" height="27.9685" fill="white" transform="translate(18 19.0157)"/>
</clipPath>
</defs>
</svg>
