<svg width="171" height="60" viewBox="0 0 171 60" fill="none" xmlns="http://www.w3.org/2000/svg">
<g filter="url(#filter0_b_46_124)">
<rect x="1.29117" y="0.582678" width="168.835" height="58.8032" rx="11.4173" stroke="#E6E8F2" stroke-width="1.16536"/>
<g clip-path="url(#clip0_46_124)">
<path d="M37.2964 17.7053C35.9872 17.7959 34.4569 18.6339 33.5652 19.7252C32.7517 20.7152 32.0825 22.1856 32.3434 23.6145C33.7739 23.6591 35.252 22.8011 36.1084 21.6914C36.9096 20.6584 37.5159 19.1972 37.2964 17.7053Z" fill="#393939" fill-opacity="0.95"/>
<path d="M42.4704 25.9445C41.2133 24.3681 39.4467 23.4534 37.7783 23.4534C35.5757 23.4534 34.6441 24.5078 33.1138 24.5078C31.536 24.5078 30.3373 23.4564 28.4325 23.4564C26.5615 23.4564 24.5692 24.5999 23.306 26.5553C21.5302 29.3089 21.8341 34.486 24.712 38.8956C25.7419 40.4735 27.1171 42.2478 28.916 42.2631C30.5168 42.2785 30.9681 41.2363 33.1368 41.2256C35.3056 41.2133 35.717 42.2769 37.3147 42.26C39.1151 42.2462 40.5656 40.2801 41.5955 38.7022C42.3337 37.571 42.6085 37.0016 43.181 35.7246C39.0169 34.1391 38.3492 28.2176 42.4704 25.9445Z" fill="#393939" fill-opacity="0.95"/>
</g>
<path d="M65.04 35.9843L64.16 33.6643H59.072L58.192 35.9843H56.24L60.672 24.6243H62.544L66.992 35.9843H65.04ZM59.696 31.9843H63.536L61.616 26.8963L59.696 31.9843ZM72.8024 27.5043C74.7704 27.5043 76.8344 28.9603 76.8344 31.8243C76.8344 34.6883 74.7704 36.1443 72.8024 36.1443C71.2824 36.1443 70.2264 35.3123 69.9224 34.6563H69.8744V39.0243H68.1144V27.6643H69.8744V28.9923H69.9224C70.2264 28.3363 71.2824 27.5043 72.8024 27.5043ZM72.4664 34.5443C73.7944 34.5443 75.0904 33.6163 75.0904 31.8243C75.0904 30.0323 73.7944 29.1043 72.4664 29.1043C71.1224 29.1043 69.8264 30.0323 69.8264 31.8243C69.8264 33.6163 71.1224 34.5443 72.4664 34.5443ZM82.7243 27.5043C84.6923 27.5043 86.7563 28.9603 86.7563 31.8243C86.7563 34.6883 84.6923 36.1443 82.7243 36.1443C81.2043 36.1443 80.1483 35.3123 79.8443 34.6563H79.7963V39.0243H78.0363V27.6643H79.7963V28.9923H79.8443C80.1483 28.3363 81.2043 27.5043 82.7243 27.5043ZM82.3883 34.5443C83.7163 34.5443 85.0123 33.6163 85.0123 31.8243C85.0123 30.0323 83.7163 29.1043 82.3883 29.1043C81.0443 29.1043 79.7483 30.0323 79.7483 31.8243C79.7483 33.6163 81.0443 34.5443 82.3883 34.5443ZM94.9778 36.1443C93.0258 36.1443 91.4738 34.9923 91.0738 33.3443L92.5458 32.6723C92.8658 33.6963 93.7138 34.4803 94.9618 34.4803C96.0018 34.4803 96.8978 33.9363 96.8978 32.8003C96.8978 31.8083 96.2418 31.3763 95.0098 30.8803L94.2738 30.5923C92.6578 29.9523 91.5058 29.0723 91.5058 27.4563C91.5058 25.6163 93.0258 24.4643 94.8978 24.4643C96.8338 24.4643 97.9698 25.6323 98.4498 26.8483L97.0898 27.5843C96.6258 26.6243 95.9378 26.0963 94.9618 26.0963C94.0338 26.0963 93.2978 26.5923 93.2978 27.4723C93.2978 28.1603 93.7138 28.6883 94.9938 29.2003L95.7618 29.5043C97.6978 30.2723 98.7698 31.1523 98.7698 32.8163C98.7698 35.0243 96.8818 36.1443 94.9778 36.1443ZM104.026 29.0883H102.346V33.6483C102.346 34.1283 102.602 34.4963 103.258 34.4963C103.45 34.4963 103.722 34.4643 104.026 34.3523V35.7443C103.722 36.0003 103.178 36.0803 102.73 36.0803C101.466 36.0803 100.57 35.4563 100.57 33.9683V29.0883H99.4175V27.6643H100.57V25.5363H102.346V27.6643H104.026V29.0883ZM109.332 36.1443C107.172 36.1443 104.98 34.6243 104.98 31.8243C104.98 29.0243 107.172 27.5043 109.332 27.5043C111.492 27.5043 113.684 29.0243 113.684 31.8243C113.684 34.6243 111.492 36.1443 109.332 36.1443ZM109.332 34.5283C110.692 34.5283 111.924 33.5363 111.924 31.8243C111.924 30.1123 110.692 29.1203 109.332 29.1203C107.972 29.1203 106.724 30.1123 106.724 31.8243C106.724 33.5363 107.972 34.5283 109.332 34.5283ZM119.436 27.5043C119.628 27.5043 119.788 27.5203 119.964 27.5683V29.2483C119.788 29.2163 119.644 29.2003 119.452 29.2003C117.868 29.2003 116.796 30.3523 116.796 32.0963V35.9843H115.036V27.6643H116.796V29.8083C117.084 28.5603 117.916 27.5043 119.436 27.5043ZM124.844 27.5043C126.956 27.5043 129.26 29.0083 128.86 32.4963H122.332C122.604 33.9363 123.74 34.6723 125.164 34.6723C126.06 34.6723 126.86 34.3843 127.468 33.8083L128.3 34.6723C127.58 35.5683 126.38 36.1443 124.972 36.1443C122.716 36.1443 120.668 34.5923 120.668 31.8243C120.668 29.0243 122.732 27.5043 124.844 27.5043ZM124.86 29.0083C123.692 29.0083 122.572 29.7123 122.316 31.1843H127.292C127.196 29.7443 126.044 29.0083 124.86 29.0083Z" fill="#393939" fill-opacity="0.9"/>
</g>
<defs>
<filter id="filter0_b_46_124" x="-19.2915" y="-20" width="210" height="99.9685" filterUnits="userSpaceOnUse" color-interpolation-filters="sRGB">
<feFlood flood-opacity="0" result="BackgroundImageFix"/>
<feGaussianBlur in="BackgroundImageFix" stdDeviation="10"/>
<feComposite in2="SourceAlpha" operator="in" result="effect1_backgroundBlur_46_124"/>
<feBlend mode="normal" in="SourceGraphic" in2="effect1_backgroundBlur_46_124" result="shape"/>
</filter>
<clipPath id="clip0_46_124">
<rect width="27.9685" height="27.9685" fill="white" transform="translate(18.7085 16)"/>
</clipPath>
</defs>
</svg>
