<svg width="41" height="41" viewBox="0 0 41 41" fill="none" xmlns="http://www.w3.org/2000/svg">
<rect x="0.708496" y="0.984375" width="40" height="40" rx="20" fill="#E6E8F2"/>
<g clip-path="url(#clip0_46_114)">
<mask id="mask0_46_114" style="mask-type:luminance" maskUnits="userSpaceOnUse" x="10" y="10" width="21" height="21">
<path d="M10.7085 10.9844H30.7085V30.9844H10.7085V10.9844Z" fill="white"/>
</mask>
<g mask="url(#mask0_46_114)">
<path fill-rule="evenodd" clip-rule="evenodd" d="M10.7085 21.0402C10.7085 26.0127 14.3193 30.146 19.0418 30.9844V23.7619H16.5418V20.9844H19.0418V18.7619C19.0418 16.2619 20.6527 14.8735 22.931 14.8735C23.6527 14.8735 24.431 14.9844 25.1527 15.0952V17.651H23.8752C22.6527 17.651 22.3752 18.2619 22.3752 19.0402V20.9844H25.0418L24.5977 23.7619H22.3752V30.9844C27.0977 30.146 30.7085 26.0127 30.7085 21.0402C30.7085 15.5094 26.2085 10.9844 20.7085 10.9844C15.2085 10.9844 10.7085 15.5094 10.7085 21.0402Z" fill="black"/>
</g>
</g>
<defs>
<clipPath id="clip0_46_114">
<rect width="20" height="20" fill="white" transform="translate(10.7085 10.9844)"/>
</clipPath>
</defs>
</svg>
