<svg width="189" height="66" viewBox="0 0 189 66" fill="none" xmlns="http://www.w3.org/2000/svg">
<g filter="url(#filter0_b_46_242)">
<rect x="0.62207" width="187.622" height="66" rx="16" fill="white" fill-opacity="0.2"/>
<g clip-path="url(#clip0_46_242)">
<path d="M26.3024 22.1705C25.427 21.6866 24.3991 21.6978 23.5293 22.1775L33.7238 31.5819L37.1486 28.1571L26.3024 22.1705Z" fill="white" fill-opacity="0.95"/>
<path d="M22.5097 23.1393C22.2608 23.5462 22.1182 24.0119 22.1182 24.5055V41.4908C22.1182 41.9691 22.2482 42.425 22.4832 42.8235L32.735 32.5717L22.5097 23.1393Z" fill="white" fill-opacity="0.95"/>
<path d="M41.6891 30.6629L38.4223 28.8604L34.7515 32.5298L39.2502 36.679L41.6905 35.3323C42.5687 34.8456 43.0945 33.973 43.0945 32.9969C43.0931 32.0208 42.5687 31.1482 41.6891 30.6629Z" fill="white" fill-opacity="0.95"/>
<path d="M33.7627 33.5198L23.4829 43.7996C23.929 44.0541 24.4185 44.1884 24.9107 44.1884C25.3862 44.1884 25.8644 44.0681 26.3021 43.8262L37.9608 37.392L33.7627 33.5198Z" fill="white" fill-opacity="0.95"/>
</g>
<path d="M61.6936 19.05C61.5136 18.7033 61.2636 18.4433 60.9436 18.27C60.6236 18.09 60.2536 18 59.8336 18C59.3736 18 58.9636 18.1033 58.6036 18.31C58.2436 18.5167 57.9602 18.81 57.7536 19.19C57.5536 19.57 57.4536 20.01 57.4536 20.51C57.4536 21.01 57.5536 21.4533 57.7536 21.84C57.9602 22.22 58.2436 22.5133 58.6036 22.72C58.9636 22.9267 59.3736 23.03 59.8336 23.03C60.4536 23.03 60.9569 22.8567 61.3436 22.51C61.7302 22.1633 61.9669 21.6933 62.0536 21.1H59.4436V20.19H63.2736V21.08C63.2002 21.62 63.0069 22.1167 62.6936 22.57C62.3869 23.0233 61.9836 23.3867 61.4836 23.66C60.9902 23.9267 60.4402 24.06 59.8336 24.06C59.1802 24.06 58.5836 23.91 58.0436 23.61C57.5036 23.3033 57.0736 22.88 56.7536 22.34C56.4402 21.8 56.2836 21.19 56.2836 20.51C56.2836 19.83 56.4402 19.22 56.7536 18.68C57.0736 18.14 57.5036 17.72 58.0436 17.42C58.5902 17.1133 59.1869 16.96 59.8336 16.96C60.5736 16.96 61.2302 17.1433 61.8036 17.51C62.3836 17.87 62.8036 18.3833 63.0636 19.05H61.6936ZM67.0379 17.97V20.01H69.4379V20.94H67.0379V23.07H69.7379V24H65.8979V17.04H69.7379V17.97H67.0379ZM77.1321 17.05V17.98H75.2821V24H74.1421V17.98H72.2821V17.05H77.1321ZM85.0243 17.05V24H83.8843V17.05H85.0243ZM92.511 17.05V17.98H90.661V24H89.521V17.98H87.661V17.05H92.511ZM102.433 24.07C101.787 24.07 101.19 23.92 100.643 23.62C100.103 23.3133 99.6732 22.89 99.3532 22.35C99.0399 21.8033 98.8832 21.19 98.8832 20.51C98.8832 19.83 99.0399 19.22 99.3532 18.68C99.6732 18.14 100.103 17.72 100.643 17.42C101.19 17.1133 101.787 16.96 102.433 16.96C103.087 16.96 103.683 17.1133 104.223 17.42C104.77 17.72 105.2 18.14 105.513 18.68C105.827 19.22 105.983 19.83 105.983 20.51C105.983 21.19 105.827 21.8033 105.513 22.35C105.2 22.89 104.77 23.3133 104.223 23.62C103.683 23.92 103.087 24.07 102.433 24.07ZM102.433 23.08C102.893 23.08 103.303 22.9767 103.663 22.77C104.023 22.5567 104.303 22.2567 104.503 21.87C104.71 21.4767 104.813 21.0233 104.813 20.51C104.813 19.9967 104.71 19.5467 104.503 19.16C104.303 18.7733 104.023 18.4767 103.663 18.27C103.303 18.0633 102.893 17.96 102.433 17.96C101.973 17.96 101.563 18.0633 101.203 18.27C100.843 18.4767 100.56 18.7733 100.353 19.16C100.153 19.5467 100.053 19.9967 100.053 20.51C100.053 21.0233 100.153 21.4767 100.353 21.87C100.56 22.2567 100.843 22.5567 101.203 22.77C101.563 22.9767 101.973 23.08 102.433 23.08ZM114.315 24H113.175L109.745 18.81V24H108.605V17.04H109.745L113.175 22.22V17.04H114.315V24Z" fill="white" fill-opacity="0.9"/>
<path d="M64.7936 38.192C64.5376 37.7227 64.1856 37.3653 63.7376 37.12C63.2896 36.8747 62.7669 36.752 62.1696 36.752C61.5082 36.752 60.9216 36.9013 60.4096 37.2C59.8976 37.4987 59.4976 37.9253 59.2096 38.48C58.9216 39.0347 58.7776 39.6747 58.7776 40.4C58.7776 41.1467 58.9216 41.7973 59.2096 42.352C59.5082 42.9067 59.9189 43.3333 60.4416 43.632C60.9642 43.9307 61.5722 44.08 62.2656 44.08C63.1189 44.08 63.8176 43.856 64.3616 43.408C64.9056 42.9493 65.2629 42.3147 65.4336 41.504H61.5936V39.792H67.6416V41.744C67.4922 42.5227 67.1722 43.2427 66.6816 43.904C66.1909 44.5653 65.5562 45.0987 64.7776 45.504C64.0096 45.8987 63.1456 46.096 62.1856 46.096C61.1082 46.096 60.1322 45.856 59.2576 45.376C58.3936 44.8853 57.7109 44.208 57.2096 43.344C56.7189 42.48 56.4736 41.4987 56.4736 40.4C56.4736 39.3013 56.7189 38.32 57.2096 37.456C57.7109 36.5813 58.3936 35.904 59.2576 35.424C60.1322 34.9333 61.1029 34.688 62.1696 34.688C63.4282 34.688 64.5216 34.9973 65.4496 35.616C66.3776 36.224 67.0176 37.0827 67.3696 38.192H64.7936ZM73.2348 46.144C72.3815 46.144 71.6135 45.9573 70.9308 45.584C70.2482 45.2 69.7095 44.6613 69.3148 43.968C68.9308 43.2747 68.7388 42.4747 68.7388 41.568C68.7388 40.6613 68.9362 39.8613 69.3308 39.168C69.7362 38.4747 70.2855 37.9413 70.9788 37.568C71.6722 37.184 72.4455 36.992 73.2988 36.992C74.1522 36.992 74.9255 37.184 75.6188 37.568C76.3122 37.9413 76.8562 38.4747 77.2508 39.168C77.6562 39.8613 77.8588 40.6613 77.8588 41.568C77.8588 42.4747 77.6508 43.2747 77.2348 43.968C76.8295 44.6613 76.2748 45.2 75.5708 45.584C74.8775 45.9573 74.0988 46.144 73.2348 46.144ZM73.2348 44.192C73.6402 44.192 74.0188 44.096 74.3708 43.904C74.7335 43.7013 75.0215 43.4027 75.2348 43.008C75.4482 42.6133 75.5548 42.1333 75.5548 41.568C75.5548 40.7253 75.3308 40.08 74.8828 39.632C74.4455 39.1733 73.9068 38.944 73.2668 38.944C72.6268 38.944 72.0882 39.1733 71.6508 39.632C71.2242 40.08 71.0108 40.7253 71.0108 41.568C71.0108 42.4107 71.2188 43.0613 71.6348 43.52C72.0615 43.968 72.5948 44.192 73.2348 44.192ZM83.4379 46.144C82.5846 46.144 81.8166 45.9573 81.1339 45.584C80.4513 45.2 79.9126 44.6613 79.5179 43.968C79.1339 43.2747 78.9419 42.4747 78.9419 41.568C78.9419 40.6613 79.1393 39.8613 79.5339 39.168C79.9393 38.4747 80.4886 37.9413 81.1819 37.568C81.8753 37.184 82.6486 36.992 83.5019 36.992C84.3553 36.992 85.1286 37.184 85.8219 37.568C86.5153 37.9413 87.0593 38.4747 87.4539 39.168C87.8593 39.8613 88.0619 40.6613 88.0619 41.568C88.0619 42.4747 87.8539 43.2747 87.4379 43.968C87.0326 44.6613 86.4779 45.2 85.7739 45.584C85.0806 45.9573 84.3019 46.144 83.4379 46.144ZM83.4379 44.192C83.8433 44.192 84.2219 44.096 84.5739 43.904C84.9366 43.7013 85.2246 43.4027 85.4379 43.008C85.6513 42.6133 85.7579 42.1333 85.7579 41.568C85.7579 40.7253 85.5339 40.08 85.0859 39.632C84.6486 39.1733 84.1099 38.944 83.4699 38.944C82.8299 38.944 82.2913 39.1733 81.8539 39.632C81.4273 40.08 81.2139 40.7253 81.2139 41.568C81.2139 42.4107 81.4219 43.0613 81.8379 43.52C82.2646 43.968 82.7979 44.192 83.4379 44.192ZM93.1771 36.992C93.8384 36.992 94.4197 37.1253 94.9211 37.392C95.4224 37.648 95.8171 37.984 96.1051 38.4V37.136H98.3611V46.064C98.3611 46.8853 98.1957 47.616 97.8651 48.256C97.5344 48.9067 97.0384 49.4187 96.3771 49.792C95.7157 50.176 94.9157 50.368 93.9771 50.368C92.7184 50.368 91.6837 50.0747 90.8731 49.488C90.0731 48.9013 89.6197 48.1013 89.5131 47.088H91.7371C91.8544 47.4933 92.1051 47.8133 92.4891 48.048C92.8837 48.2933 93.3584 48.416 93.9131 48.416C94.5637 48.416 95.0917 48.2187 95.4971 47.824C95.9024 47.44 96.1051 46.8533 96.1051 46.064V44.688C95.8171 45.104 95.4171 45.4507 94.9051 45.728C94.4037 46.0053 93.8277 46.144 93.1771 46.144C92.4304 46.144 91.7477 45.952 91.1291 45.568C90.5104 45.184 90.0197 44.6453 89.6571 43.952C89.3051 43.248 89.1291 42.4427 89.1291 41.536C89.1291 40.64 89.3051 39.8453 89.6571 39.152C90.0197 38.4587 90.5051 37.9253 91.1131 37.552C91.7317 37.1787 92.4197 36.992 93.1771 36.992ZM96.1051 41.568C96.1051 41.024 95.9984 40.56 95.7851 40.176C95.5717 39.7813 95.2837 39.4827 94.9211 39.28C94.5584 39.0667 94.1691 38.96 93.7531 38.96C93.3371 38.96 92.9531 39.0613 92.6011 39.264C92.2491 39.4667 91.9611 39.7653 91.7371 40.16C91.5237 40.544 91.4171 41.0027 91.4171 41.536C91.4171 42.0693 91.5237 42.5387 91.7371 42.944C91.9611 43.3387 92.2491 43.6427 92.6011 43.856C92.9637 44.0693 93.3477 44.176 93.7531 44.176C94.1691 44.176 94.5584 44.0747 94.9211 43.872C95.2837 43.6587 95.5717 43.36 95.7851 42.976C95.9984 42.5813 96.1051 42.112 96.1051 41.568ZM102.789 34.16V46H100.549V34.16H102.789ZM113.242 41.376C113.242 41.696 113.221 41.984 113.178 42.24H106.698C106.751 42.88 106.975 43.3813 107.37 43.744C107.765 44.1067 108.25 44.288 108.826 44.288C109.658 44.288 110.25 43.9307 110.602 43.216H113.018C112.762 44.0693 112.271 44.7733 111.546 45.328C110.821 45.872 109.93 46.144 108.874 46.144C108.021 46.144 107.253 45.9573 106.57 45.584C105.898 45.2 105.37 44.6613 104.986 43.968C104.613 43.2747 104.426 42.4747 104.426 41.568C104.426 40.6507 104.613 39.8453 104.986 39.152C105.359 38.4587 105.882 37.9253 106.554 37.552C107.226 37.1787 107.999 36.992 108.874 36.992C109.717 36.992 110.469 37.1733 111.13 37.536C111.802 37.8987 112.319 38.416 112.682 39.088C113.055 39.7493 113.242 40.512 113.242 41.376ZM110.922 40.736C110.911 40.16 110.703 39.7013 110.298 39.36C109.893 39.008 109.397 38.832 108.81 38.832C108.255 38.832 107.786 39.0027 107.402 39.344C107.029 39.6747 106.799 40.1387 106.714 40.736H110.922ZM126.833 38.288C126.833 38.8853 126.689 39.4453 126.401 39.968C126.124 40.4907 125.681 40.912 125.073 41.232C124.476 41.552 123.719 41.712 122.801 41.712H120.929V46H118.689V34.832H122.801C123.665 34.832 124.401 34.9813 125.009 35.28C125.617 35.5787 126.071 35.9893 126.369 36.512C126.679 37.0347 126.833 37.6267 126.833 38.288ZM122.705 39.904C123.324 39.904 123.783 39.7653 124.081 39.488C124.38 39.2 124.529 38.8 124.529 38.288C124.529 37.2 123.921 36.656 122.705 36.656H120.929V39.904H122.705ZM130.664 34.16V46H128.424V34.16H130.664ZM132.301 41.536C132.301 40.64 132.477 39.8453 132.829 39.152C133.192 38.4587 133.677 37.9253 134.285 37.552C134.904 37.1787 135.592 36.992 136.349 36.992C137.01 36.992 137.586 37.1253 138.077 37.392C138.578 37.6587 138.978 37.9947 139.277 38.4V37.136H141.533V46H139.277V44.704C138.989 45.12 138.589 45.4667 138.077 45.744C137.576 46.0107 136.994 46.144 136.333 46.144C135.586 46.144 134.904 45.952 134.285 45.568C133.677 45.184 133.192 44.6453 132.829 43.952C132.477 43.248 132.301 42.4427 132.301 41.536ZM139.277 41.568C139.277 41.024 139.17 40.56 138.957 40.176C138.744 39.7813 138.456 39.4827 138.093 39.28C137.73 39.0667 137.341 38.96 136.925 38.96C136.509 38.96 136.125 39.0613 135.773 39.264C135.421 39.4667 135.133 39.7653 134.909 40.16C134.696 40.544 134.589 41.0027 134.589 41.536C134.589 42.0693 134.696 42.5387 134.909 42.944C135.133 43.3387 135.421 43.6427 135.773 43.856C136.136 44.0693 136.52 44.176 136.925 44.176C137.341 44.176 137.73 44.0747 138.093 43.872C138.456 43.6587 138.744 43.36 138.957 42.976C139.17 42.5813 139.277 42.112 139.277 41.568ZM152.201 37.136L146.713 50.192H144.329L146.249 45.776L142.697 37.136H145.209L147.497 43.328L149.817 37.136H152.201Z" fill="white" fill-opacity="0.9"/>
</g>
<defs>
<filter id="filter0_b_46_242" x="-19.3779" y="-20" width="227.622" height="106" filterUnits="userSpaceOnUse" color-interpolation-filters="sRGB">
<feFlood flood-opacity="0" result="BackgroundImageFix"/>
<feGaussianBlur in="BackgroundImageFix" stdDeviation="10"/>
<feComposite in2="SourceAlpha" operator="in" result="effect1_backgroundBlur_46_242"/>
<feBlend mode="normal" in="SourceGraphic" in2="effect1_backgroundBlur_46_242" result="shape"/>
</filter>
<clipPath id="clip0_46_242">
<rect width="27.9685" height="27.9685" fill="white" transform="translate(18.6221 19.0157)"/>
</clipPath>
</defs>
</svg>
