<svg width="164" height="60" viewBox="0 0 164 60" fill="none" xmlns="http://www.w3.org/2000/svg">
<g filter="url(#filter0_b_46_137)">
<rect x="1.29117" y="0.582678" width="162.126" height="58.8032" rx="11.4173" stroke="#E6E8F2" stroke-width="1.16536"/>
<g clip-path="url(#clip0_46_137)">
<path d="M26.3888 19.1547C25.5134 18.6709 24.4855 18.6821 23.6157 19.1617L33.8103 28.5661L37.235 25.1414L26.3888 19.1547Z" fill="#393939" fill-opacity="0.95"/>
<path d="M22.5962 20.1235C22.3472 20.5305 22.2046 20.9962 22.2046 21.4898V38.4751C22.2046 38.9534 22.3346 39.4092 22.5696 39.8078L32.8215 29.5559L22.5962 20.1235Z" fill="#393939" fill-opacity="0.95"/>
<path d="M41.7755 27.6472L38.5088 25.8446L34.8379 29.5141L39.3366 33.6632L41.7769 32.3165C42.6551 31.8299 43.1809 30.9573 43.1809 29.9812C43.1795 29.005 42.6551 28.1324 41.7755 27.6472Z" fill="#393939" fill-opacity="0.95"/>
<path d="M33.8492 30.504L23.5693 40.7839C24.0154 41.0384 24.5049 41.1726 24.9971 41.1726C25.4726 41.1726 25.9509 41.0524 26.3886 40.8104L38.0472 34.3763L33.8492 30.504Z" fill="#393939" fill-opacity="0.95"/>
</g>
<path d="M67.744 30.0323C68.144 33.8723 65.584 36.1443 62.512 36.1443C59.376 36.1443 56.72 33.8083 56.72 30.3043C56.72 26.8003 59.376 24.4643 62.56 24.4643C64.016 24.4643 65.872 24.9603 67.072 26.8163L65.76 27.7443C64.928 26.5923 63.728 26.1923 62.592 26.1923C60.352 26.1923 58.576 27.7763 58.576 30.3043C58.576 32.8163 60.352 34.4643 62.592 34.4643C64.208 34.4643 65.664 33.6163 65.984 31.5523H63.024V30.0323H67.744ZM73.3164 36.1443C71.1564 36.1443 68.9644 34.6243 68.9644 31.8243C68.9644 29.0243 71.1564 27.5043 73.3164 27.5043C75.4764 27.5043 77.6684 29.0243 77.6684 31.8243C77.6684 34.6243 75.4764 36.1443 73.3164 36.1443ZM73.3164 34.5283C74.6764 34.5283 75.9084 33.5363 75.9084 31.8243C75.9084 30.1123 74.6764 29.1203 73.3164 29.1203C71.9564 29.1203 70.7084 30.1123 70.7084 31.8243C70.7084 33.5363 71.9564 34.5283 73.3164 34.5283ZM82.9726 36.1443C80.8126 36.1443 78.6206 34.6243 78.6206 31.8243C78.6206 29.0243 80.8126 27.5043 82.9726 27.5043C85.1326 27.5043 87.3246 29.0243 87.3246 31.8243C87.3246 34.6243 85.1326 36.1443 82.9726 36.1443ZM82.9726 34.5283C84.3326 34.5283 85.5646 33.5363 85.5646 31.8243C85.5646 30.1123 84.3326 29.1203 82.9726 29.1203C81.6126 29.1203 80.3646 30.1123 80.3646 31.8243C80.3646 33.5363 81.6126 34.5283 82.9726 34.5283ZM95.2369 27.6643H96.9969V35.4243C96.9969 38.4963 94.6129 39.3123 92.7089 39.3123C91.6689 39.3123 90.7249 39.0723 90.2769 38.7683V37.3123C90.6609 37.5683 91.4769 37.8243 92.4049 37.8243C94.0209 37.8243 95.2369 37.0883 95.2369 35.5203V34.6563H95.1409C94.8529 35.3123 93.8129 36.1443 92.3089 36.1443C90.3569 36.1443 88.2769 34.6883 88.2769 31.8243C88.2769 28.9603 90.3569 27.5043 92.3089 27.5043C93.8129 27.5043 94.8529 28.3363 95.1409 28.9923H95.2369V27.6643ZM92.6449 34.5443C93.9889 34.5443 95.2849 33.6163 95.2849 31.8243C95.2849 30.0323 93.9889 29.1043 92.6449 29.1043C91.3169 29.1043 90.0209 30.0323 90.0209 31.8243C90.0209 33.6163 91.3169 34.5443 92.6449 34.5443ZM98.755 35.9843V24.6243H100.515V35.9843H98.755ZM106.047 27.5043C108.159 27.5043 110.463 29.0083 110.063 32.4963H103.535C103.807 33.9363 104.943 34.6723 106.367 34.6723C107.263 34.6723 108.063 34.3843 108.671 33.8083L109.503 34.6723C108.783 35.5683 107.583 36.1443 106.175 36.1443C103.919 36.1443 101.871 34.5923 101.871 31.8243C101.871 29.0243 103.935 27.5043 106.047 27.5043ZM106.063 29.0083C104.895 29.0083 103.775 29.7123 103.519 31.1843H108.495C108.399 29.7443 107.247 29.0083 106.063 29.0083ZM118.705 24.6243C121.153 24.6243 122.689 26.1603 122.689 28.4163C122.689 30.6563 121.153 32.1923 118.705 32.1923H116.641V35.9843H114.833V24.6243H118.705ZM118.529 30.5123C119.921 30.5123 120.849 29.8723 120.849 28.4163C120.849 26.9603 119.921 26.3043 118.529 26.3043H116.641V30.5123H118.529ZM124.13 35.9843V24.6243H125.89V35.9843H124.13ZM131.278 36.1443C129.31 36.1443 127.246 34.6883 127.246 31.8243C127.246 28.9603 129.31 27.5043 131.278 27.5043C132.798 27.5043 133.854 28.3363 134.158 28.9923H134.206V27.6643H135.966V35.9843H134.206V34.6563H134.158C133.854 35.3123 132.798 36.1443 131.278 36.1443ZM131.614 34.5443C132.958 34.5443 134.254 33.6163 134.254 31.8243C134.254 30.0323 132.958 29.1043 131.614 29.1043C130.286 29.1043 128.99 30.0323 128.99 31.8243C128.99 33.6163 130.286 34.5443 131.614 34.5443ZM143.856 27.6643H145.68L142.16 35.9843L140.848 39.0243H139.104L140.48 35.9203L137.008 27.6643H138.816L141.344 33.8563L143.856 27.6643Z" fill="#393939" fill-opacity="0.9"/>
</g>
<defs>
<filter id="filter0_b_46_137" x="-19.2915" y="-20" width="203.292" height="99.9685" filterUnits="userSpaceOnUse" color-interpolation-filters="sRGB">
<feFlood flood-opacity="0" result="BackgroundImageFix"/>
<feGaussianBlur in="BackgroundImageFix" stdDeviation="10"/>
<feComposite in2="SourceAlpha" operator="in" result="effect1_backgroundBlur_46_137"/>
<feBlend mode="normal" in="SourceGraphic" in2="effect1_backgroundBlur_46_137" result="shape"/>
</filter>
<clipPath id="clip0_46_137">
<rect width="27.9685" height="27.9685" fill="white" transform="translate(18.7085 16)"/>
</clipPath>
</defs>
</svg>
