<svg width="41" height="41" viewBox="0 0 41 41" fill="none" xmlns="http://www.w3.org/2000/svg">
<rect x="0.708496" y="0.984375" width="40" height="40" rx="20" fill="#E6E8F2"/>
<path d="M20.7083 24.3177C21.5924 24.3177 22.4402 23.9665 23.0654 23.3414C23.6905 22.7162 24.0417 21.8684 24.0417 20.9843C24.0417 20.1003 23.6905 19.2524 23.0654 18.6273C22.4402 18.0022 21.5924 17.651 20.7083 17.651C19.8243 17.651 18.9764 18.0022 18.3513 18.6273C17.7262 19.2524 17.375 20.1003 17.375 20.9843C17.375 21.8684 17.7262 22.7162 18.3513 23.3414C18.9764 23.9665 19.8243 24.3177 20.7083 24.3177Z" stroke="black" stroke-width="1.5" stroke-linecap="round" stroke-linejoin="round"/>
<path d="M13.2085 24.3177V17.651C13.2085 16.546 13.6475 15.4862 14.4289 14.7048C15.2103 13.9234 16.2701 13.4844 17.3752 13.4844H24.0418C25.1469 13.4844 26.2067 13.9234 26.9881 14.7048C27.7695 15.4862 28.2085 16.546 28.2085 17.651V24.3177C28.2085 25.4228 27.7695 26.4826 26.9881 27.264C26.2067 28.0454 25.1469 28.4844 24.0418 28.4844H17.3752C16.2701 28.4844 15.2103 28.0454 14.4289 27.264C13.6475 26.4826 13.2085 25.4228 13.2085 24.3177Z" stroke="black" stroke-width="1.5"/>
<path d="M25.292 16.4113L25.302 16.4003" stroke="black" stroke-width="1.5" stroke-linecap="round" stroke-linejoin="round"/>
</svg>
