<svg width="41" height="41" viewBox="0 0 41 41" fill="none" xmlns="http://www.w3.org/2000/svg">
<rect x="0.708496" y="0.984375" width="40" height="40" rx="20" fill="#E6E8F2"/>
<path d="M16.492 15.151C16.4918 15.593 16.316 16.0169 16.0033 16.3293C15.6906 16.6417 15.2666 16.8171 14.8245 16.8169C14.3825 16.8166 13.9587 16.6408 13.6463 16.3281C13.3339 16.0154 13.1585 15.5914 13.1587 15.1494C13.1589 14.7073 13.3347 14.2835 13.6474 13.9711C13.9602 13.6587 14.3842 13.4833 14.8262 13.4835C15.2682 13.4837 15.6921 13.6595 16.0045 13.9723C16.3169 14.285 16.4922 14.709 16.492 15.151ZM16.542 18.051H13.2087V28.4844H16.542V18.051ZM21.8087 18.051H18.492V28.4844H21.7754V23.0094C21.7754 19.9594 25.7504 19.676 25.7504 23.0094V28.4844H29.042V21.876C29.042 16.7344 23.1587 16.926 21.7754 19.451L21.8087 18.051Z" fill="black"/>
</svg>
