<svg width="41" height="41" viewBox="0 0 41 41" fill="none" xmlns="http://www.w3.org/2000/svg">
<rect x="0.708496" y="0.984375" width="40" height="40" rx="20" fill="#E6E8F2"/>
<path d="M24.7252 28.291L13.836 14.291C13.7787 14.2171 13.7432 14.1286 13.7336 14.0355C13.724 13.9424 13.7408 13.8485 13.7819 13.7645C13.8231 13.6804 13.887 13.6096 13.9664 13.5601C14.0458 13.5106 14.1375 13.4844 14.231 13.4844H16.2977C16.3738 13.4845 16.4488 13.502 16.5171 13.5355C16.5855 13.569 16.6452 13.6176 16.6919 13.6777L27.581 27.6777C27.6384 27.7516 27.6739 27.8401 27.6835 27.9332C27.6931 28.0263 27.6763 28.1202 27.6352 28.2043C27.594 28.2883 27.5301 28.3591 27.4507 28.4086C27.3713 28.4581 27.2796 28.4844 27.186 28.4844H25.1194C25.0433 28.4843 24.9682 28.4668 24.8999 28.4333C24.8316 28.3998 24.7719 28.3511 24.7252 28.291Z" stroke="black" stroke-width="1.5"/>
<path d="M27.3753 13.4844L14.042 28.4844" stroke="black" stroke-width="1.5" stroke-linecap="round"/>
</svg>
